<svg xmlns="http://www.w3.org/2000/svg" xmlns:xlink="http://www.w3.org/1999/xlink" version="1.1" id="Capa_1" x="0px" y="0px" viewBox="0 0 1360.6 340.2" style="enable-background:new 0 0 1360.6 340.2;" xml:space="preserve"> <style type="text/css"> .st0{fill:#FFF;} </style> <g> <path class="st0" d="M253.6,229.1l-16.1,18.3c-51.5-4.7-131.4,6.7-222.3,31.3C80.7,246.6,209.7,222.9,253.6,229.1"/> <path class="st0" d="M250.7,286.2c-0.8-9-15.1-5.2-39.8-28.7c0.8,1.1,0.8,4.7,1.7,5.6c15.8,17.8,8.8,25.4-23.8,49l-18.5-9.5 l-6.8,16.7c10.5,1.8,28.3,6.3,29.4,4.2C244,286.9,251.1,299.7,250.7,286.2"/> <path class="st0" d="M185.3,45.2l4.1-29.2c5.1,28.1,44.2,44.9,95.1,77.7l-5.8,1.8C257.6,89.2,202.7,61.8,185.3,45.2"/> <path class="st0" d="M208.7,178l54.5,2.3c54.3,62.5,112.3,67.8,107.7,76.6c-3.4,6.5-91.5-33.1-115.4-62.8l-67.1-6.3 c-15.2-13.4-25.8-52.3-12-76.5C173.7,150.3,188.3,166.7,208.7,178"/> <path class="st0" d="M1018.6,165.1c4.2-18.5,5.5-34.6,3.4-48.4c-1.2-9.2-4.5-17.4-9.4-23.7c-4-5.5-9.5-10-16.1-13.5 c-12.4-6.1-27.8-9.3-45.9-9.3c-7.5,0-14.7,0.6-21.5,1.4c-18.5,2.5-34.2,8.4-46.8,17.4c-20.7,14.9-35,39.7-43.1,74.3 c-0.2,1.4-0.7,2.7-0.7,4.2c-3.6,17.6-3.9,32.7-0.6,45.5c0.2,0.5,0.4,1.3,0.6,1.7c0.7,2.3,1.5,4.3,2.4,6.4h0.3l-0.1,0.6 c4,9.3,10.4,16.4,19.1,21.4c13.4,7.7,30.2,11.5,50.6,11.5c6.4,0,12.6-0.6,18.5-1.3c8.9-1.1,17.2-3.1,25.1-6 c17.5-6.3,32.3-17.7,43.8-34c5.9-8.5,10.7-18,14.6-28.6C1015,178.5,1017.1,172,1018.6,165.1 M976.4,162.6 c-4.8,21-12.1,36.4-22.1,46.5c-6.7,6.9-15.1,11.5-25.1,13.6c-4.2,1.1-8.8,1.3-13.6,1.3c-16.5,0-27.7-5.1-32.7-14.9 c-5.2-9.9-5.5-25.6-0.5-47c4.5-19.9,10.7-34.6,18.8-43.7c7.5-8.3,16.9-13.6,28-15.9c4.6-0.9,9.3-1.6,14.4-1.6 c18,0.2,29.3,6.2,33.9,17.9C981.2,129.1,980.8,143.5,976.4,162.6"/> <path class="st0" d="M636.4,71.5l-2.5,3.7L543.7,215l-13,20.2l-4.3,18.3h17.3h20.6l27.5-42.2H634h27l8,42.2h45.4L681,71.5H636.4z M634,178.9H608l25.9-40.6l14.8-23.1l11,63.7H634z"/> <path class="st0" d="M551.5,145.4h-7.8H462l-7.6,32.2h50.9l-10.1,43.5h-35c-9.2,0-16.4-0.9-22-2.8c-5.6-2-9.6-4.9-12.3-8.8 c-3-4.5-4.5-11.1-4.7-20.1c-0.1-8.8,0.9-18.8,3.5-30c5-21.5,12.9-36.6,23.3-44.8c9.1-7.1,21.7-10.8,37.8-10.8h57.9h17.2l7.6-32.3 h-24.8h-54.6c-18.5,0-34.5,2.7-47.5,7.8c-12.7,5.2-23.8,13.6-33.2,25c-12.4,15.7-21.8,35.2-27.2,58.8c-2.6,12.3-4.3,23.1-4.3,32.9 v1.6c0,18.3,5.3,32.2,15.6,41.7c5.3,5.3,12.1,9,19.8,10.9c7.8,2.3,18.6,3.1,32.9,3.1h81.3l4.3-18.3l13-56.3L551.5,145.4z"/> <path class="st0" d="M1240.4,117.1c5.1-5.2,11-8.7,17.3-10.7c6.5-1.7,16.3-2.6,29.8-2.6h50.2l7.6-32.3h-65.6 c-12.7,0-23.2,1-31.2,3.4c-8.2,2.2-16.2,6.4-24.2,12.6c-11.8,8.8-21.6,19.6-29.4,32.2c-1.3,2.9-3.8,5.9-5.5,9.3 c-3.3,7.2-6.4,13.4-8.7,21.4c-0.5,1.5-1.1,4.1-1.5,6.1c-1.3,2.3-1.2,4.8-1.6,6.7c-6.3,28-4.5,49.9,5.1,66.3 c0.6,0.8,1.2,1.6,1.6,2.4c7,10.2,18,16.5,32.7,19c9.9,1.7,21.7,2.5,35.4,2.5h50.7l7.4-32.3h-48.8c-18.6,0-31.3-3-37.6-9.2 c-6.6-6.1-8.7-17.2-6.2-32.7h102.5l7.6-32.6h-102.7c2.7-8.6,5.2-14.9,6.9-18.4C1234.3,124.4,1237,120.7,1240.4,117.1"/> <path class="st0" d="M838.5,221.1h-34.5c-16.8,0-28.3-1.5-34.3-4.7c-6-3-8.7-8.6-8.1-16.9c0.4-4.2,1.9-12.9,4.1-25.8l23.9-102.2 h-38.9l-23.7,102.2c-4.2,17.9-5.8,30.7-5.6,38.2c0.7,19.6,10.6,32.3,29.3,38.3c8.3,2.4,22.2,3.5,41.9,3.2h41l4.8-20.2l2.5-11.5 c0-0.2-0.1-0.4-0.2-0.6H838.5z"/> <path class="st0" d="M1184.6,140.2c3-7.5,6.4-14.2,10.4-20.5c0.3-7-0.2-13.7-2.2-20c-1.8-6-4.6-11-8.2-15 c-3.7-4.4-8.7-7.8-14.3-9.8c-6.9-2.4-18.4-3.4-35-3.4h-27.6h-63.3l-31.9,137.9l-10.2,44.1h10.2h28.5l14.6-63.5h52h10.5 c10.4,0,18.9-1,25.5-2.8c6.5-1.9,13.1-5.2,19.5-9.8c5.5-4,10.1-8.6,14.6-14.2c0.1-0.6,0.1-1.2,0.4-1.8 C1179.8,153.9,1182.1,146.7,1184.6,140.2 M1151.2,129.4c-2.7,11.1-7.4,19.1-14.1,23.5c-4.5,3.1-11.6,4.6-21,4.6h-8.3h-44.4 l12.5-53.7h31.9h21.6c6.7,0,11.3,0.7,14.2,1.8C1151.4,109.2,1153.9,117.1,1151.2,129.4"/> <path class="st0" d="M179.2,23.6L174.7,43c-32,12-75,42.4-122.4,81.7C79.5,83.4,149.9,30.9,179.2,23.6"/> <path class="st0" d="M289.1,127l-11.7,0.8c-0.1-3.2,0.2-26.5,1.9-30.1l6.1-6.4C286.4,101.1,286.6,126.3,289.1,127"/> <path class="st0" d="M200.1,125.5c-2.6-4.7-3.1-10.8-0.9-18c2.3-1.9,72.2,3.1,78.2,20.6C255.7,115.4,203.8,118.9,200.1,125.5"/> </g> </svg>